<svg width="105" height="94" viewBox="0 0 105 94" fill="none" xmlns="http://www.w3.org/2000/svg">
<path d="M12 30C12 27.2385 14.2386 25 17 25H92C94.7614 25 97 27.2385 97 30V94H12V30Z" fill="#00171F"/>
<path d="M15.714 20.353L12.5513 27.353C11.3551 30.0005 13.2913 32.9999 16.1965 32.9999H48.8035C51.7087 32.9999 53.6449 30.0005 52.4487 27.353L49.286 20.353C48.6388 18.9206 47.2127 17.9999 45.6408 17.9999H19.3592C17.7873 17.9999 16.3612 18.9206 15.714 20.353Z" fill="#00171F"/>
<rect x="18.4154" y="30.0281" width="63.8033" height="63.1287" transform="rotate(-26.4124 18.4154 30.0281)" fill="white" stroke="#00171F" stroke-width="2"/>
<path d="M2.35645 38H85.915C86.3738 38 86.7694 38.3113 86.8828 38.748L86.9023 38.8379L95.6309 91.8379C95.7308 92.4467 95.2606 93 94.6436 93H11.085C10.5954 93 10.1772 92.6452 10.0977 92.1621L1.36914 39.1621C1.26916 38.5533 1.73944 38 2.35645 38Z" fill="#FFD639" stroke="#00171F" stroke-width="2"/>
</svg>
