<svg width="40" height="40" viewBox="0 0 40 40" fill="none" xmlns="http://www.w3.org/2000/svg">
<circle cx="20" cy="20" r="19" fill="#EE6352" stroke="#00171F" stroke-width="2"/>
<path d="M28.3205 17.4794H26.0247V15.2622C26.0254 15.2526 26.0257 15.2436 26.0255 15.2354C26.0255 11.7974 23.2689 9 19.8797 9C16.4916 9 13.7348 11.7974 13.7348 15.2354V17.4794H11.6793C11.5901 17.4794 11.5017 17.4972 11.4193 17.5318C11.3369 17.5664 11.262 17.6172 11.1989 17.6812C11.1358 17.7452 11.0858 17.8212 11.0516 17.9049C11.0175 17.9885 11 18.0782 11 18.1687V28.3107C11 28.4012 11.0175 28.4909 11.0516 28.5745C11.0858 28.6582 11.1358 28.7342 11.1989 28.7982C11.262 28.8622 11.3369 28.913 11.4193 28.9476C11.5017 28.9822 11.5901 29 11.6793 29H28.3207C28.4099 29 28.4983 28.9822 28.5807 28.9476C28.6631 28.913 28.738 28.8622 28.8011 28.7982C28.8642 28.7342 28.9142 28.6582 28.9484 28.5745C28.9825 28.4909 29 28.4012 29 28.3107V18.1687C29 18.0782 28.9825 17.9885 28.9483 17.9048C28.9142 17.8212 28.8641 17.7452 28.801 17.6811C28.7379 17.6171 28.663 17.5664 28.5805 17.5317C28.4981 17.4971 28.4097 17.4794 28.3205 17.4794ZM17.3539 15.2354C17.3539 13.8218 18.4867 12.6736 19.8797 12.6736C21.264 12.6736 22.3924 13.8097 22.4059 15.2112L22.4051 15.2193H22.4059V17.4794H17.3539V15.2354Z" fill="white"/>
<circle cx="20" cy="23" r="2" fill="#EE6352"/>
</svg>
