<svg width="18" height="16" viewBox="0 0 18 16" fill="none" xmlns="http://www.w3.org/2000/svg">
<path d="M0.466877 15.9612C0.330587 15.9141 0.212347 15.8253 0.128652 15.7074C0.0449574 15.5895 -1.81564e-05 15.4483 5.49842e-09 15.3034C5.49842e-09 12.1253 0.635195 9.58375 1.88871 7.74864C3.40314 5.53137 5.79204 4.33752 9.00003 4.18927V0.695552C9.00004 0.559343 9.03986 0.426135 9.11453 0.312452C9.1892 0.198769 9.29544 0.109615 9.42008 0.0560486C9.54472 0.00248261 9.68227 -0.0131376 9.81566 0.0111256C9.94906 0.0353888 10.0724 0.0984677 10.1705 0.192537L17.7859 7.49648C17.8536 7.56143 17.9074 7.63949 17.9442 7.72595C17.981 7.8124 18 7.90546 18 7.99949C18 8.09352 17.981 8.18658 17.9442 8.27304C17.9074 8.35949 17.8536 8.43756 17.7859 8.50251L10.1705 15.8064C10.0724 15.9005 9.94906 15.9636 9.81566 15.9879C9.68227 16.0121 9.54472 15.9965 9.42008 15.9429C9.29544 15.8894 9.1892 15.8002 9.11453 15.6865C9.03986 15.5728 9.00004 15.4396 9.00003 15.3034V11.8354C7.05291 11.8945 5.58175 12.2114 4.41045 12.8197C3.14482 13.477 2.22708 14.4591 1.23794 15.7325C1.1492 15.8467 1.02721 15.9302 0.88898 15.9713C0.750753 16.0125 0.603188 16.0093 0.466877 15.9621V15.9612Z" fill="white"/>
</svg>
