<svg width="174" height="46" viewBox="0 0 174 46" fill="none" xmlns="http://www.w3.org/2000/svg">
<path fill-rule="evenodd" clip-rule="evenodd" d="M86.3171 25.2774V25.3392C86.3171 31.5002 91.1688 36.4911 97.9679 36.4911C104.767 36.4911 109.687 31.4413 109.687 25.276V25.2141C109.687 19.0488 104.827 14.0623 98.0322 14.0623C91.236 14.0623 86.3171 19.1121 86.3171 25.2774ZM104.627 25.2774V25.3392C104.627 29.0507 101.907 32.0896 98.0147 32.0896C94.1213 32.0896 91.3558 28.9918 91.3558 25.276V25.2141C91.3558 21.4954 94.0366 18.4609 97.9504 18.4609C101.866 18.4609 104.627 21.5587 104.627 25.2774ZM66.0351 18.8303H72.9219V36.113H77.8408V18.8303H84.7071V14.4302H66.0351V18.8303ZM113.731 14.4302H123.668C126.462 14.4302 128.63 15.2065 130.075 16.6296C131.3 17.8399 131.961 19.5419 131.961 21.586V21.6478C131.961 25.148 130.042 27.3488 127.249 28.3708L132.618 36.113H126.964L122.256 29.1816H118.567V36.113H113.731V14.4302ZM123.251 24.9611C125.609 24.9611 126.957 23.7249 126.957 21.8979V21.8361C126.957 19.7949 125.514 18.7542 123.169 18.7542H118.465V24.9928L123.251 24.9611ZM152.72 14.4302H136.251V36.113H152.878V31.8725H141.055V27.3172H151.308V23.0723H141.055V18.6751H152.72V14.4302ZM167.011 23.1356C163.213 22.1753 162.27 21.711 162.27 20.2865V20.2247C162.27 19.184 163.245 18.3359 165.083 18.3359C166.719 18.3359 168.406 18.9626 170.117 20.0263L173.312 16.8768C171 15.0494 168.111 14.0746 165.145 14.1212C160.655 14.1212 157.449 16.723 157.449 20.6574V20.7192C157.449 25.023 160.31 26.2333 164.738 27.3488C168.413 28.2774 169.164 28.8984 169.164 30.1217V30.1835C169.164 31.4556 167.974 32.2276 166.003 32.2276C163.623 32.2276 161.638 31.3104 159.752 29.8442L156.589 32.9635C159.16 35.2077 162.481 36.441 165.918 36.4278C170.659 36.4278 174 34.0028 174 29.7048V29.643C173.985 25.8624 171.474 24.2999 167.011 23.1356ZM52.1388 20.2865C52.1388 21.7096 53.0826 22.1753 56.881 23.1356C61.3266 24.2999 63.8525 25.8624 63.8846 29.643V29.7048C63.8846 34.0028 60.5464 36.4278 55.8028 36.4278C52.366 36.4404 49.0449 35.2071 46.4734 32.9635L49.6363 29.8442C51.5223 31.3104 53.5077 32.229 55.8876 32.229C57.854 32.229 59.049 31.4556 59.049 30.1835V30.1217C59.049 28.8984 58.2937 28.2774 54.6224 27.3488C50.1914 26.2333 47.3339 25.0244 47.3339 20.7192V20.6574C47.3339 16.7244 50.5391 14.1212 55.03 14.1212C57.9954 14.0751 60.884 15.0498 63.1965 16.8768L60 20.0249C58.2849 18.9612 56.6019 18.3344 54.9643 18.3344C53.1133 18.3344 52.1359 19.1825 52.1359 20.2232V20.2851L52.1388 20.2865Z" fill="#3D4C66"/>
<path d="M23.7154 0.199412C16.8257 2.59711 10.4663 7.28901 6.01486 13.1309C-4.69077 25.9603 -1.61699 37.4327 19.3691 35.0336C30.3932 33.8865 26.1522 20.7452 16.402 27.6292C3.68323 36.806 8.8768 52.0331 24.2457 43.4816C39.8249 34.5118 44.2778 10.9402 17.1441 16.2588C10.5729 17.5094 11.1018 26.3757 18.2033 25.1237C23.0799 24.29 29.2274 16.9891 29.2274 11.669C29.2274 8.64598 27.1076 6.76721 24.9878 7.39395C22.9732 8.01924 22.9732 10.8352 24.6693 11.462C27.1076 12.2957 24.3509 17.5109 18.9455 20.9522C16.8271 22.3077 15.7665 20.4304 18.2033 20.0135C29.9681 18.0312 33.784 21.6809 32.0879 27.7327C30.1814 33.5717 26.3655 38.0566 20.7468 40.6642C11.1018 45.0441 11.5269 36.9095 17.9915 30.9641C21.2786 28.2531 22.868 30.4423 19.8994 30.9641C13.8585 31.7979 -1.51034 33.4682 6.65036 19.4931C11.5269 11.1486 19.4758 5.82998 25.5167 4.16108C27.955 3.22241 27.1062 -0.949125 23.7154 0.197975V0.199412Z" fill="url(#paint0_linear_391_74)"/>
<defs>
<linearGradient id="paint0_linear_391_74" x1="18.2954" y1="0.231037" x2="18.2954" y2="46.23" gradientUnits="userSpaceOnUse">
<stop stop-color="#00A2D9"/>
<stop offset="0.09" stop-color="#00ADD9"/>
<stop offset="0.14" stop-color="#00B6D9"/>
<stop offset="0.18" stop-color="#0CB6D9"/>
<stop offset="0.25" stop-color="#2BB7D9"/>
<stop offset="0.34" stop-color="#5DB9D9"/>
<stop offset="0.45" stop-color="#A2BBD9"/>
<stop offset="0.54" stop-color="#D9BDD9"/>
<stop offset="0.71" stop-color="#FBB0B7"/>
<stop offset="0.77" stop-color="#FAA3AC"/>
<stop offset="0.87" stop-color="#F9818D"/>
<stop offset="0.99" stop-color="#F65163"/>
<stop offset="1" stop-color="#F65163"/>
</linearGradient>
</defs>
</svg>
