<?xml version="1.0" encoding="UTF-8"?>
<svg id="_レイヤー_1" data-name="レイヤー_1" xmlns="http://www.w3.org/2000/svg" version="1.1" viewBox="0 0 435.69 88.11">
  <!-- Generator: Adobe Illustrator 29.6.1, SVG Export Plug-In . SVG Version: 2.1.1 Build 9)  -->
  <defs>
    <style>
      .st0 {
        fill: #fff;
      }
    </style>
  </defs>
  <path class="st0" d="M68.37,22.85s8.01-.41,14.06,6.26c2.01,2.22,3.91,5.08,5.02,9.05C84.55,16.63,66.08.02,43.72,0h0s0,0,0,0C21.36.02,2.89,16.63,0,38.15c1.1-3.97,3.01-6.83,5.01-9.05,6.05-6.66,14.05-6.26,14.05-6.26,19.91,1.02,19.99,21,19.99,21v44.05c.94.09,1.88.16,2.83.21v-47.03c0-6.42-2.02-12.65-6.48-17.09-4.11-4.12-9.43-6.39-14.99-6.47,2.36-4.14,5.67-7.61,9.59-10.03,4.13-2.56,8.89-3.93,13.72-3.93h0s0,0,0,0h0c4.83,0,9.58,1.37,13.72,3.93,3.91,2.42,7.23,5.89,9.59,10.03-5.57.08-10.89,2.36-14.99,6.47-4.47,4.44-6.49,10.68-6.49,17.09v47.03c.96-.05,1.89-.11,2.83-.21v-44.05s.09-19.98,19.99-21"/>
  <path class="st0" d="M70.16,46.65s-2.99.05-5.51,1.63c-2.99,1.87-6.12,5.67-6.12,13.54v23.79c8.85-3.18,16.43-9.11,21.64-16.75,3.44-5.61,3.61-10.07,2.74-13.28-1.22-4.15-5.04-9.35-12.75-8.92"/>
  <path class="st0" d="M81.42,36.3c-2.68-2.1-6.67-3.68-12.61-3.68,0,0-16.75.1-16.75,14.79v39.98c.95-.18,1.88-.4,2.81-.64v-35.41s-.09-2.85,1.5-6c1.72-3.59,5.4-7.51,13.3-7.74,0,0,6.66-.62,11.63,4.8,2.34,2.68,4.45,5.82,4.49,14.77,4.18-12.4-2.21-19-4.38-20.86"/>
  <path class="st0" d="M18.63,32.62c-5.94,0-9.92,1.59-12.61,3.68-2.16,1.86-8.55,8.46-4.38,20.86.06-8.95,2.16-12.09,4.5-14.77,4.97-5.42,11.63-4.8,11.63-4.8,7.91.23,11.59,4.15,13.31,7.74,1.6,3.15,1.5,6,1.5,6v35.41c.93.24,1.87.46,2.82.64v-39.98c0-14.69-16.77-14.79-16.77-14.79"/>
  <path class="st0" d="M22.79,48.28c-2.52-1.58-5.5-1.63-5.5-1.63-7.7-.43-11.52,4.77-12.75,8.92-.87,3.22-.71,7.68,2.74,13.28,5.2,7.64,12.79,13.57,21.64,16.75v-23.79c0-7.87-3.14-11.67-6.13-13.54"/>
  <path class="st0" d="M429.96,74.83h.63v-1.6c.18.02.37.02.45.02.05,0,.24,0,.36-.02l1,1.6h.76l-1.13-1.74c.47-.2.81-.73.81-1.31,0-.71-.58-1.34-1.76-1.34-.44,0-.76.02-1.13.08v4.31ZM430.58,71.04c.13-.02.39-.02.58-.02.63,0,1.02.31,1.02.78,0,.56-.4.9-1.08.9-.13,0-.34,0-.53-.03v-1.63ZM431.3,76.62c-2.1,0-3.79-1.81-3.79-3.92s1.69-3.95,3.79-3.95,3.79,1.77,3.79,3.95-1.66,3.92-3.79,3.92M431.3,77.17c2.45,0,4.39-2.05,4.39-4.47s-1.94-4.5-4.39-4.5-4.39,2-4.39,4.5,1.94,4.47,4.39,4.47"/>
  <polygon class="st0" points="420.6 74.32 420.6 14.73 416.1 14.73 416.1 63.24 377.23 13.85 376.19 14.09 376.19 73.6 380.61 73.6 380.61 24.53 419.79 74.48 420.6 74.32"/>
  <rect class="st0" x="354.59" y="14.73" width="4.5" height="58.86"/>
  <polygon class="st0" points="342.79 73.6 312.67 43.32 341.66 14.73 335.88 14.73 308.34 42.12 308.34 14.73 303.84 14.73 303.84 73.6 308.34 73.6 308.34 44.53 336.84 73.6 342.79 73.6"/>
  <path class="st0" d="M289.79,58.42c0-8.43-5.38-12.37-15.5-16.94-7.15-3.29-12.13-6.34-12.13-12.69s4.9-10.92,12.77-10.92c4.42,0,8.51,1.61,11.48,3.69l2.17-3.77c-3.45-2.33-8.11-4.01-13.25-4.01-10.52,0-17.67,6.83-17.67,15.34s5.54,12.29,14.61,16.3c8.35,3.77,12.93,6.74,12.93,13.57s-5.22,11.48-13.01,11.48c-5.3,0-10.52-2.09-15.26-5.3l-2.17,3.93c5.14,3.37,10.76,5.46,17.02,5.46,9.96,0,17.99-6.51,17.99-16.14"/>
  <path class="st0" d="M228.52,52.24V14.73h-4.58v37.42c0,11.89-6.99,18.15-17.51,18.15s-17.35-6.1-17.35-18.15V14.73h-4.5v37.5c0,14.21,8.19,22.16,21.84,22.16s22.08-8.35,22.08-22.16"/>
  <polygon class="st0" points="168.69 74.32 168.69 14.73 164.19 14.73 164.19 63.24 125.33 13.85 124.28 14.09 124.28 73.6 128.7 73.6 128.7 24.53 167.89 74.48 168.69 74.32"/>
</svg>