<svg width="26" height="26" viewBox="0 0 26 26" fill="none" xmlns="http://www.w3.org/2000/svg">
<path d="M23.1113 0.5C23.6894 0.500044 24.1852 0.676077 24.6172 1.03711L24.7988 1.20312C25.2719 1.67634 25.5008 2.22949 25.5 2.88867V23.1113C25.5 23.6895 25.3241 24.1853 24.9639 24.6172L24.7979 24.7988C24.326 25.2714 23.7728 25.5008 23.1113 25.5H2.88867C2.31039 25.5 1.81495 25.3241 1.38379 24.9639L1.20312 24.7988C0.789898 24.3856 0.561684 23.9097 0.510742 23.3535L0.5 23.1104V2.88867C0.500044 2.31073 0.675374 1.81492 1.03613 1.38379L1.20215 1.20312C1.61636 0.789621 2.09212 0.561782 2.64648 0.510742L2.88965 0.5H23.1113ZM15.8496 12.7002L11.916 17.9443L9.06641 14.1445L8.66699 13.6113L8.2666 14.1445L3.33301 20.7227H22.667L22.0664 19.9219L16.6504 12.7002L16.25 12.167L15.8496 12.7002Z" fill="black" stroke="#001931"/>
</svg>
