<svg width="30" height="30" viewBox="0 0 30 30" fill="none" xmlns="http://www.w3.org/2000/svg">
<path d="M16 26V29.5H14V26H16ZM25.96 24.5459L24.5459 25.96L22.0703 23.4844L23.4844 22.0703L25.96 24.5459ZM7.92969 23.4854L5.45508 25.959L4.04102 24.5459L6.51562 22.0713L7.92969 23.4854ZM15.0029 7.98926C18.8683 7.98926 22.0137 11.1346 22.0137 15C22.0137 18.8654 18.8683 22.0107 15.0029 22.0107C11.1376 22.0107 7.99219 18.8653 7.99219 15C7.99219 11.1347 11.1376 7.9893 15.0029 7.98926ZM29.5 14V16H26V14H29.5ZM4 14V16H0.5V14H4ZM7.92969 6.5166L6.51562 7.93066L4.04199 5.45508L5.45703 4.04102L7.92969 6.5166ZM25.96 5.4541L23.4844 7.92969L22.0703 6.51562L24.5459 4.04004L25.96 5.4541ZM16 0.5V4H14V0.5H16Z" fill="black" stroke="#001931"/>
</svg>
