<svg width="30" height="23" viewBox="0 0 30 23" fill="none" xmlns="http://www.w3.org/2000/svg">
<path d="M27 0.5C27.6106 0.5 28.1324 0.678619 28.584 1.04004L28.7734 1.20605C29.2047 1.61934 29.4382 2.09021 29.4893 2.63574L29.5 2.87402V20.125C29.5 20.694 29.3201 21.1849 28.9453 21.6152L28.7734 21.7959C28.3427 22.2093 27.8432 22.4388 27.2568 22.4893L27.001 22.5H3C2.38912 22.5 1.86768 22.3216 1.41699 21.9609L1.22754 21.7949C0.797593 21.3828 0.564114 20.9117 0.511719 20.3643L0.5 20.124V2.875L0.510742 2.63574C0.555118 2.16745 0.733324 1.7547 1.05469 1.38672L1.22754 1.20605C1.6595 0.79287 2.15913 0.562444 2.74414 0.510742L3.00098 0.5H27ZM26.7432 2.44629L15 9.47949L3.25684 2.44629L2.5 1.99316V6.0332L2.74316 6.17871L14.7432 13.3662L15 13.5205L15.2568 13.3662L27.2568 6.17871L27.5 6.0332V1.99316L26.7432 2.44629Z" fill="black" stroke="#001931"/>
</svg>
