<svg width="32" height="31" viewBox="0 0 32 31" fill="none" xmlns="http://www.w3.org/2000/svg">
<path d="M16 0.5C17.9086 0.5 19.7995 0.850279 21.5781 1.53125L21.9326 1.67188C23.6959 2.397 25.308 3.43846 26.6885 4.74316L26.9619 5.00781C28.4007 6.43637 29.5417 8.13212 30.3203 9.99805C31.099 11.8643 31.5 13.8649 31.5 15.8848C31.5 22.667 27.0888 28.4117 20.9521 30.4863C20.6833 30.5267 20.6004 30.4554 20.5801 30.4355C20.5401 30.3962 20.5001 30.3104 20.5 30.1816V25.8291C20.5 24.7534 20.2395 23.8943 19.8535 23.2637C21.3911 23.0157 22.9572 22.5353 24.208 21.502C25.731 20.2437 26.708 18.2363 26.708 15.0908C26.708 13.3149 26.129 11.8533 25.1279 10.6729C25.3548 9.95211 25.6666 8.36239 24.8623 6.40234L24.7744 6.18652L24.5518 6.11621L24.4541 6.42188C24.5517 6.11576 24.5512 6.11537 24.5508 6.11523H24.5498L24.5479 6.11426C24.5465 6.11383 24.5445 6.11375 24.543 6.11328C24.5398 6.11234 24.536 6.11142 24.5322 6.11035C24.5245 6.10816 24.5153 6.10513 24.5049 6.10254C24.4838 6.09729 24.4568 6.09173 24.4248 6.08594C24.3605 6.07433 24.2745 6.06274 24.166 6.05762C23.9481 6.04735 23.642 6.062 23.2441 6.14453C22.4814 6.30278 21.3847 6.7125 19.9121 7.67383C18.6631 7.35086 17.323 7.18848 16 7.18848C14.6767 7.18848 13.3362 7.3507 12.0869 7.67383C10.6146 6.71282 9.51846 6.30276 8.75586 6.14453C8.35796 6.062 8.05188 6.04735 7.83398 6.05762C7.72553 6.06274 7.63949 6.07433 7.5752 6.08594C7.54318 6.09173 7.51619 6.09729 7.49512 6.10254C7.48472 6.10513 7.4755 6.10816 7.46777 6.11035C7.46401 6.11142 7.46016 6.11234 7.45703 6.11328C7.45549 6.11375 7.45353 6.11383 7.45215 6.11426L7.4502 6.11523H7.44922C7.44873 6.11539 7.44776 6.11594 7.59961 6.5918L7.44824 6.11621L7.22559 6.18652L7.1377 6.40234C6.33347 8.36213 6.64427 9.95198 6.87109 10.6729C5.87032 11.8532 5.29199 13.3151 5.29199 15.0908C5.29204 18.2279 6.26391 20.2389 7.7793 21.5029C9.02922 22.5454 10.5963 23.0318 12.1338 23.2812C11.9084 23.661 11.7262 24.1225 11.6191 24.667C11.1864 24.8227 10.5835 24.9796 9.95898 24.9258C9.28152 24.8674 8.5484 24.5654 7.95703 23.6562L7.84082 23.4658C7.84038 23.465 7.84035 23.4638 7.83984 23.4629C7.83721 23.4583 7.83336 23.4525 7.8291 23.4453C7.82029 23.4304 7.80766 23.4097 7.79199 23.3848C7.76059 23.3347 7.71533 23.2654 7.65625 23.1836C7.53828 23.0202 7.36224 22.8019 7.12988 22.5791C6.66866 22.1368 5.95245 21.6477 4.99512 21.5811L4.98242 21.5801H4.94238C4.92744 21.5801 4.90656 21.5804 4.88184 21.5811C4.83294 21.5824 4.76515 21.5851 4.68848 21.5928C4.55424 21.6062 4.31631 21.6398 4.11719 21.749C4.01288 21.8063 3.86913 21.9113 3.78711 22.0938C3.6974 22.2935 3.71995 22.4983 3.79102 22.665C3.85654 22.8187 3.96669 22.952 4.08691 23.0684C4.21103 23.1885 4.37078 23.3143 4.56738 23.4473L4.59961 23.4688L4.63379 23.4854L4.64648 23.4922C4.66478 23.5027 4.69611 23.5218 4.73828 23.5508C4.82336 23.6093 4.95259 23.7088 5.10547 23.8623C5.40797 24.166 5.81106 24.6877 6.15234 25.5352C6.15544 25.5445 6.15985 25.5568 6.16504 25.5713C6.17578 25.6013 6.19121 25.6419 6.21191 25.6914C6.25346 25.7907 6.31667 25.9267 6.40723 26.084C6.58811 26.3982 6.88128 26.8042 7.33203 27.1758C8.17189 27.8681 9.49547 28.3876 11.5 28.0928V30.1816C11.4999 30.3092 11.4605 30.3918 11.4219 30.4297C11.401 30.4501 11.3187 30.5199 11.0576 30.4854C4.92434 28.4248 0.5 22.6652 0.5 15.8848C0.500014 11.9333 2.03165 8.13791 4.76953 5.28125L5.03809 5.00781C6.38728 3.66833 7.97408 2.58836 9.7168 1.82129L10.0674 1.67188C11.9482 0.898433 13.964 0.5 16 0.5Z" fill="black" stroke="#001931"/>
</svg>
